<?xml version="1.0" encoding="UTF-8"?><svg xmlns="http://www.w3.org/2000/svg" xmlns:xlink="http://www.w3.org/1999/xlink" height="479.0" preserveAspectRatio="xMidYMid meet" version="1.0" viewBox="-0.9 -10.5 400.2 479.0" width="400.2" zoomAndPan="magnify"><g data-name="Layer 3"><g id="change1_1"><path d="M223,308.42s58,63.42,128.28,48.49c0,0,17,37.75,10.13,74.67s-194.13,25.34-192.52-13C169.81,396.63,223,308.42,223,308.42Z" fill="#dc805a"/></g><g id="change2_1"><path d="M70.65,105.77s46.15,102.75,75.9,106.45c13.53,1.69,40.06-46.77,70.13-66.16,16-10.31,34.78-13.67,47.79,0,11.44,12,15.09,19.78-.22,43.63C244.66,220.19,192.32,278.28,152.88,290a51.08,51.08,0,0,1-8.29,1.77c-11.4,1.41-23.17-7-34.6-21.06C69.34,220.74,33.05,100,33.05,100Z" fill="#e9eaf6"/></g><g id="change1_2"><path d="M65.6,136.37,57.4,124l2.11,13.6a48.55,48.55,0,0,1-18.95-.79l-5.84-36.1h0c-4.16-3.51-9.29-7.87-14-12-6.4-2.12-13.51-5-16.06-7.73-5-5.46-5.56-12-3.58-12.8,1.35-.51,2-2.26,6-.67,2.14-11.27,8.75-30.93,10-34,3.43-8.37,9.35,2.32,7.61,8.22C22.54,49,21.24,56.11,21.24,56.11S24.49,43.76,28,42.4s26.76-4.8,35.28,1.18,5,17.51,4.74,21.13-8.87-3.17-8.87-3.17a34.65,34.65,0,0,1-.81,10.26c-1.07,4.93,5.25,13.57,7.08,20L84.34,128A61.52,61.52,0,0,1,65.6,136.37Z" fill="#dc805a"/></g><g id="change3_1"><path d="M314.14,32.69c13,25.49,31.63,12,31.57,47.23,0,24.42-6.43,27.84,21.44,39.66S399.3,151.9,397.08,165c-3.84,22.64-24.88,37.15-52,11.35s-53.94,22.87-72.27-2.8-18.94-28.48-42.25-30.24-20.82-22.92-15.22-45.12-6.83-10.2-10-42.54S233.14,7,233.14,7C272.68-10.48,301.16,7.19,314.14,32.69Z" fill="#18253b"/></g><g id="change2_2"><path d="M235.45,337.72,181.58,444.65s-72.91-22.24-62.13-35,35.07-55.51,47.2-79.77c13.95-27.91,25-89.78,34.41-120.22s-1.46-43.51,4.8-52.72,43.42-26.56,43.42-26.56Z" fill="#e9eaf6"/></g><g id="change1_3"><path d="M352.69,361C340.37,368,331.15,372,303.18,369.3c-38.81-3.66-65.1-16.15-76.86-37.89,6.43-18.73,4.18-26.56.41-39.22a23.27,23.27,0,0,0-3.37-7c-.5-.69-1-1.29-1.55-1.9-6-6.53-14.92-8.63-20.72-23a36.77,36.77,0,0,1-2.36-8.46c-.11-.78-.16-1.59-.2-2.32-.58-11.31,6.53-18.74,12.08-30.48.29-.62.61-1.27.87-1.93a62.84,62.84,0,0,0,5.2-20.72c.88-10.71,1.74-19.29,3.42-26.54.18-.76.37-1.52.58-2.25v0a42,42,0,0,1,13.51-22.1c.57-.52,1.18-1,1.81-1.53a91.17,91.17,0,0,1,13-8.53c27.07-15,45.89-15.69,45.89-15.69a481.85,481.85,0,0,0,54.94,29.94c32.69,15.3,27.3,57.39,27,93.16C376.47,290.91,358.84,310.63,352.69,361Z" fill="#dc805a"/></g><g id="change4_1"><path d="M296.39,125.43s-20.8,33.54-47.78,17l.83-15.2.91-16.59L251,99.07,283.1,75Z" fill="#e09e85"/></g><g id="change5_1"><path d="M293.05,65.73c-1.85,11.74-4.59,15.88-11.56,28-6.21,10.77-18.38,17.36-24.85,18.71-23.53,4.91-35.81-3.31-37-35.92-.71-20.25-7.66-30.72-3.55-39.1h0c.29-.4.59-.79.89-1.17A45.45,45.45,0,0,1,246.6,19.58C304.28,11.68,295.7,48.89,293.05,65.73Z" fill="#f9cdbb"/></g><g id="change1_4"><path d="M213,98.48a10.45,10.45,0,1,1,11.5,9.29A10.47,10.47,0,0,1,213,98.48Zm2.34-.25a8.1,8.1,0,1,0,7.19-8.91A8.1,8.1,0,0,0,215.32,98.23Zm66.08-9.4a10.45,10.45,0,1,1,11.5,9.29A10.47,10.47,0,0,1,281.4,88.83Zm2.34-.24a8.1,8.1,0,1,0,7.2-8.92A8.1,8.1,0,0,0,283.74,88.59Z" fill="#dc805a"/></g><g id="change3_2"><path d="M295.76,62.21c-5.8-2-11.82-2.32-16.72-3.06C276.85,85,266.56,91.79,266.56,91.79a109.61,109.61,0,0,0,1.84-43.31c-.48-1.85-.8-3.55-1-4.67h0c-.13-.84-.19-1.35-.19-1.35-8.85-8.93-17-12.36-24.23-12.67,6.23,10.64,18.86,12.68,18.86,12.68s-17.74,6.14-31.06-8.21a5.24,5.24,0,0,1-1-1.5C218.66,38.3,212,49.61,212,49.61c-1.73-11.21,9.84-28,9.84-28,34.45-19,64.66-3.38,71.79,9.06S303.7,65,295.76,62.21Z" fill="#18253b"/></g><g id="change2_3"><path d="M386.47,458.82s-94.4,8.85-127.87-2.82c0,0,9.07-47.2,13.14-90.67-58.6-27.11-124.83-83.56-124.83-83.56L159,257.31s65,29.63,109.77,39.3c-10-28.63-19.81-35.11-16-56.88,4-23.27,21.55-89.68,24.33-96.12l19.32-18.18S362,142.67,364.9,166.61c0,0-.09,2.17-.23,6,10.11,3,15.42,10,18,32.11,3.89,33.81.85,104.74-18.69,141.42.58,10.74,1.39,20.16,2.47,27.54C374.06,426,386.47,458.82,386.47,458.82Z" fill="#e9eaf6"/></g><g id="change3_3"><path d="M360.27,133c37.38,16.18,30.35,46.12,18.16,57.12s-35.05,3.51-41.05-16.74S303.51,162.35,291.66,152s2.43-43.1,2.43-43.1S322.89,116.85,360.27,133Z" fill="#18253b"/></g><g id="change3_4"><path d="M182.73,271.39l-.19,0a.75.75,0,0,1-.53-.92l20.3-76.08a.75.75,0,1,1,1.45.39l-20.31,76.07A.74.74,0,0,1,182.73,271.39Z" fill="#18253b"/></g><g id="change1_5"><path d="M194.57,289l-12.48-5.8,9.6,11.3a61.32,61.32,0,0,1-13.25,15.68L148.87,282c-5.63-3.53-12.18-12-17.21-12.34a34.26,34.26,0,0,1-10.08-2.07s4.14,10.13.59,9.41-15.61-.58-19-10.42,6.36-31.2,8.65-34.22,15.06-2.71,15.06-2.71-7.21-.73-14.84-.68c-6.15,0-14.78-8.62-5.78-9.59,3.32-.36,24-1.26,35.46-.2-.41-4.29,1.45-4.42,2.31-5.58,1.27-1.69,7.45.66,11.31,7,1.95,3.21,2.7,10.83,3,17.57,2.7,5.7,5.47,11.84,7.69,16.81h0l33.07,15.61A48.76,48.76,0,0,1,194.57,289Z" fill="#dc805a"/></g><g id="change3_5"><path d="M234.26,345.05a.73.73,0,0,1-.63.35.8.8,0,0,1-.4-.11l-10.7-6.69-44.75,82c7.42,2.58,12.65,4.16,12.81,4.21a.76.76,0,0,1,.5.94.75.75,0,0,1-.72.53l-.21,0c-.65-.19-5.87-1.77-13.12-4.29l-9.45,17.33a.78.78,0,0,1-.66.39.68.68,0,0,1-.36-.1.74.74,0,0,1-.3-1l9.33-17.11c-15.92-5.59-40.22-15.26-48.58-24.74a.73.73,0,0,1,.06-1,.75.75,0,0,1,1.06.06c8.09,9.17,32.41,18.81,48.2,24.37l44.92-82.35-43.21-27a.76.76,0,0,1-.06-1.24c.12-.08,11.59-8.77,12.9-14.87l-9.38-11a.75.75,0,0,1,.09-1.05.76.76,0,0,1,1.06.08l9.6,11.3a.78.78,0,0,1,.17.6c-.89,5.75-9.82,13.24-12.68,15.51L234,344A.76.76,0,0,1,234.26,345.05Zm43.58-45.58-9.31-4a.75.75,0,1,0-.59,1.37l27.91,11.91a.72.72,0,0,0,.29.06.8.8,0,0,0,.4-.11.77.77,0,0,0,.35-.61l3-80.74a.74.74,0,0,0-.72-.78.75.75,0,0,0-.77.72l-.82,22.23-4.31-15.89a.75.75,0,0,0-1.45.4l5.3,19.53a.8.8,0,0,0,.29.42l-1.95,53-15.86-6.76s0-.09,0-.13c-.11-.4-11.15-39.82-11.69-64s21.77-86.32,22-86.94a.75.75,0,1,0-1.41-.51c-.93,2.56-22.65,63.06-22.09,87.48C266.87,258.3,276.1,293.11,277.84,299.47ZM381.17,439.9c-38.7,4.31-76.75.93-98.76-2l4.93-63.32c7.79,3.31,17.61,6.3,27.71,6.3a46.74,46.74,0,0,0,7.72-.63c13.2-2.2,24.49-12.44,31.63-20.65a111.54,111.54,0,0,0,12.44-17.4.75.75,0,1,0-1.31-.72c-.18.33-18.54,33.22-43,37.29s-50.26-13.92-50.52-14.1a.75.75,0,0,0-.86,1.22A94.33,94.33,0,0,0,285.88,374l-5,63.75c-10.91-1.48-17.51-2.79-17.7-2.83a.76.76,0,0,0-.89.59.75.75,0,0,0,.59.88c.19,0,6.87,1.37,17.89,2.86l-1.61,20.63a.75.75,0,0,0,.69.8H280a.75.75,0,0,0,.75-.7l1.6-20.54a466,466,0,0,0,60,4,357.69,357.69,0,0,0,39.07-2.05.75.75,0,0,0-.17-1.5Z" fill="#18253b"/></g><g id="change3_6"><path d="M37.43,42.07c-.07.11-6.61,10.77-7.33,21.61a.76.76,0,0,1-.75.7H29.3a.76.76,0,0,1-.7-.8c.75-11.22,7.28-21.85,7.55-22.3a.76.76,0,0,1,1-.24A.75.75,0,0,1,37.43,42.07Zm20.49,27a.74.74,0,0,0,.58.88l.15,0a.76.76,0,0,0,.74-.6c1.13-5.67.26-9.67-1-12.3a.81.81,0,0,0,.11-.27c0-.15.75-3.73,3.33-3.31a.74.74,0,0,0,.86-.61.76.76,0,0,0-.62-.87c-2.54-.41-4,1.53-4.67,3.25a10,10,0,0,0-2-2.27.75.75,0,0,0-.91,1.2C54.79,54.35,60,58.54,57.92,69.06Zm-17.4-5.94c.72-10.84,7.26-21.5,7.33-21.61a.75.75,0,0,0-1.28-.79c-.28.45-6.8,11.08-7.55,22.3a.75.75,0,0,0,.7.8h.05A.75.75,0,0,0,40.52,63.12ZM21.58,55.45a.75.75,0,0,0-1,.33c-.13.25-3.13,6.24-3.13,11.57a.75.75,0,0,0,1.5,0c0-5,2.94-10.84,3-10.9A.74.74,0,0,0,21.58,55.45ZM140.26,238.91c-.53-.16-13.16-3.94-19.66-4.68-6.82-.78-13,6.09-13.3,6.39a.76.76,0,0,0,.06,1.06.78.78,0,0,0,.5.19.74.74,0,0,0,.56-.26c.06-.06,5.94-6.6,12-5.89,6.37.73,19.27,4.59,19.4,4.63a.75.75,0,1,0,.43-1.44Zm-3.72,9.86c-.53-.16-13.16-3.94-19.66-4.68-6.81-.77-13,6.09-13.3,6.39a.75.75,0,0,0,.06,1.06.78.78,0,0,0,.5.19.77.77,0,0,0,.56-.25c.06-.07,6-6.6,12-5.9,6.37.73,19.27,4.59,19.4,4.63a.75.75,0,0,0,.93-.51A.74.74,0,0,0,136.54,248.77Zm22.7-9.09c-.06-.12-5.86-12.57-7.23-16.66-1.54-4.65-10.65-4.7-11-4.7a.75.75,0,1,0,0,1.5c2.33,0,8.61.66,9.61,3.67,1.39,4.18,7,16.31,7.29,16.83a.75.75,0,0,0,.68.43.7.7,0,0,0,.31-.07A.76.76,0,0,0,159.24,239.68Zm-38.18,26.1a.67.67,0,0,0-.12-.35l-5.76-8.37a.75.75,0,0,0-1.24.85l3.81,5.54a8.26,8.26,0,0,0-6.33-.16.76.76,0,0,0-.45,1,.74.74,0,0,0,1,.44c5.49-2,8.88,3.05,9,3.26a.75.75,0,0,0,.63.34.78.78,0,0,0,.41-.12.75.75,0,0,0,.22-1A10.62,10.62,0,0,0,121.06,265.78ZM47.78,138.87c1.09.07,2.17.11,3.21.11a61.43,61.43,0,0,0,8.64-.62.75.75,0,0,0,.62-.86l-1.58-10.23,6.3,9.51a.75.75,0,0,0,1.25-.83L58,123.59a.76.76,0,0,0-.9-.28.75.75,0,0,0-.47.81l2,12.86a59.79,59.79,0,0,1-11.5.34.67.67,0,0,0-.88-.09,25.62,25.62,0,0,1-5.47-1.12.75.75,0,0,0-.49,1.42,26.89,26.89,0,0,0,5.84,1.2c1.68,5.08,13.36,39.92,21.6,56.4a.74.74,0,0,0,.67.41.64.64,0,0,0,.33-.08.74.74,0,0,0,.34-1C61.17,178.62,50,145.64,47.78,138.87Z" fill="#18253b"/></g><g id="change3_7"><path d="M228.74,62a1.68,1.68,0,1,1-2.31-.56A1.68,1.68,0,0,1,228.74,62Zm21-3.43a1.68,1.68,0,1,0,2.31.56A1.68,1.68,0,0,0,249.74,58.6Zm-28.62-3a.74.74,0,0,0,.46-.16c.06,0,5.87-4.56,11-1.73a.75.75,0,1,0,.72-1.31c-6-3.32-12.4,1.65-12.67,1.86a.76.76,0,0,0-.12,1.06A.77.77,0,0,0,221.12,55.63ZM280,54a.76.76,0,0,1-.6.88l-20.27,3.86a9.77,9.77,0,0,1-3.78,12.51,9.64,9.64,0,0,1-5.06,1.43,9.76,9.76,0,0,1-9.46-12.3,7.35,7.35,0,0,0-2.07-.81.72.72,0,0,1,.32.86c-1,2.93-3.49,11.05-3.1,13.33.33,2,4,2.76,5.4,2.89a.76.76,0,0,1,.67.82.75.75,0,0,1-.74.68h-.08c-.25,0-6.15-.64-6.73-4.14-.52-3.07,2.79-12.94,3.16-14.06a.74.74,0,0,1,.56-.48,5.27,5.27,0,0,0-4,1.12,9.76,9.76,0,1,1-.79-1.27,7.08,7.08,0,0,1,7.87-.37,9.76,9.76,0,0,1,17-1.58l20.79-4A.76.76,0,0,1,280,54Zm-47.33,6.82a8.29,8.29,0,1,0-2.77,11.38A8.28,8.28,0,0,0,232.62,60.82Zm24.68-2.23h0A8.29,8.29,0,1,0,254.52,70,8.27,8.27,0,0,0,257.3,58.59Zm-11.92-5.48c.29-.23,7.17-5.71,13.12,1.13a.76.76,0,0,0,.57.26.72.72,0,0,0,.49-.19.75.75,0,0,0,.07-1.06c-6.92-8-15.12-1.36-15.2-1.3a.76.76,0,0,0-.11,1.06A.75.75,0,0,0,245.38,53.11Z" fill="#18253b"/></g><g id="change2_4"><path d="M281.65,155.39a78.71,78.71,0,0,1-16.27,1.83c-1.25,0-2.45,0-3.61-.11a.94.94,0,0,1-.24.06.86.86,0,0,1-.37-.1,44.13,44.13,0,0,1-18.67-5.2c-7.63-4.28-10.52-9.53-10.64-9.75a.74.74,0,0,1,.3-1,.75.75,0,0,1,1,.3,23.63,23.63,0,0,0,5.79,6.23,23.11,23.11,0,0,1,9.44-5.88.76.76,0,0,1,.93.52.74.74,0,0,1-.51.92,21.69,21.69,0,0,0-8.64,5.35,36.09,36.09,0,0,0,8.86,4.54h0c.15-.24,3.79-5.93,7.57-7.68a.75.75,0,0,1,1,.37.75.75,0,0,1-.37,1c-2.92,1.36-5.94,5.64-6.73,6.81a47.34,47.34,0,0,0,10.67,2c1.11-1.81,5.1-8.05,8.41-9.58a.76.76,0,0,1,1,.37.75.75,0,0,1-.37,1c-2.59,1.2-5.9,6.07-7.33,8.32a73.36,73.36,0,0,0,18.45-1.73.75.75,0,1,1,.31,1.47Z" fill="#e9eaf6"/></g><g id="change5_2"><path d="M271.3,77.13a14.47,14.47,0,0,1,.53-12.64c2.65-5.09,7.7-13,13.32-12.82,8.27.31,10,7.46,9.91,14.92s-3.92,17.62-14.26,17.09A10.47,10.47,0,0,1,271.3,77.13Z" fill="#f9cdbb"/></g><g id="change2_5"><path d="M283.66,96.81a32.87,32.87,0,0,1-11.19,10.77c-5,4.74-16.75,9.31-28.82,7.74-8.85-1.15-14.66-5.65-16.88-8.69-2.74-3.76-9.73-21-4.35-23.68,8.73-4.38,8.83-12.83,17.38-8.67,4.95,2.4,13,3.15,17.53,3.47a6.38,6.38,0,0,1,1.16.19c2.2-2.12,5.41-6,10.09-12.48,2.92-4.06,8.57-7.85,10.85-9.53l-.31,4.26c-.31.33-10.31,10.78-14.57,20C261.12,87.58,274,98.27,274,98.27c4.49,1.26,7.14-2.42,12.79-11.91l.47-.58C288.12,87.76,285.84,93.48,283.66,96.81Z" fill="#e9eaf6"/></g><g id="change1_6"><path d="M229.53,90.92a.47.47,0,0,1-.35-.15.5.5,0,0,1,0-.71,19.69,19.69,0,0,1,19.48-3.46.5.5,0,1,1-.32.94,18.68,18.68,0,0,0-18.47,3.24A.5.5,0,0,1,229.53,90.92ZM250.8,94.8a.5.5,0,1,0-.3-1c-8.74,2.73-18.94,2.17-19,2.17a.49.49,0,0,0-.53.47.51.51,0,0,0,.47.53s.94,0,2.43,0A60.2,60.2,0,0,0,250.8,94.8Zm1,8.86a.51.51,0,0,0,.1-.7.49.49,0,0,0-.7-.1c-5.33,4-15.95,1.61-16.05,1.58a.5.5,0,0,0-.6.38.49.49,0,0,0,.37.6,35.65,35.65,0,0,0,7.19.77C245.39,106.19,249.13,105.65,251.79,103.66Z" fill="#dc805a"/></g></g></svg>