<?xml version="1.0" encoding="UTF-8"?><svg xmlns="http://www.w3.org/2000/svg" xmlns:xlink="http://www.w3.org/1999/xlink" height="496.9" preserveAspectRatio="xMidYMid meet" version="1.0" viewBox="-29.8 -3.1 514.6 496.9" width="514.6" zoomAndPan="magnify"><g id="change1_1"><path d="M98.2526,428.7727 c-40.4925-15.9341-68.4066-58.7036-85.2294-104.7102c-42.7938-166.9058,95.9005-252.763,177.3432-268.8463 s223.4126,9.7412,258.9413,141.1905s-39.5554,182.974-39.5554,182.974C280.5108,468.8111,138.745,444.7068,98.2526,428.7727z M98.2526,428.7727c-40.4925-15.9341-68.4066-58.7036-85.2294-104.7102c-42.7938-166.9058,95.9005-252.763,177.3432-268.8463 s223.4126,9.7412,258.9413,141.1905s-39.5554,182.974-39.5554,182.974C304.5737,469.5583,138.745,444.7068,98.2526,428.7727z" fill="#38A1F4" opacity=".2"/></g><g id="change2_1"><path d="M85.7742,322.5906c-38.2613-67.2289,2.255-171.5128,17.5852-173.9436 c14.1637,2.6207,56.0731,32.9733,81.459,71.4728c26.1137-10.2156,60.9473-21.2876,81.5404-12.9292 c5.6998-26.5243,23.2119-71.0333,57.9583-93.5791c29.6151,22.5974,80.3248,81.9537,67.9266,160.3847 c14.5272,11.6221,20.0979,41.1411,22.265,40.4471c9.626,23.7098,8.9868,51.6649-10.6386,71.3871 c-19.6254,19.7222-84.0444,42.1313-121.2941,51.0167s-91.342,13.6321-153.5181,1.304s-52.1895-71.7557-52.1895-71.7557 C77.6925,358.7156,80.8146,328.7917,85.7742,322.5906z M85.7742,322.5906c-38.2613-67.2289,2.255-171.5128,17.5852-173.9436 c14.1637,2.6207,56.0731,32.9733,81.459,71.4728c26.1137-10.2156,60.9473-21.2876,81.5404-12.9292 c5.6998-26.5243,23.2119-71.0333,57.9583-93.5791c29.6151,22.5974,80.3248,81.9537,67.9266,160.3847 c14.5272,11.6221,20.0979,41.1411,22.265,40.4471c9.626,23.7098,8.9868,51.6649-10.6386,71.3871 c-19.6254,19.7222-84.0444,42.1313-121.2941,51.0167s-91.342,13.6321-153.5181,1.304s-52.1895-71.7557-52.1895-71.7557 C77.6925,358.7156,80.8146,328.7917,85.7742,322.5906z" fill="#F4F7F0"/></g><g id="change3_1"><path d="M392.2437,273.9962c4.7015-90.2851-41.9175-141.9258-70.5314-159.9717 c-44.6654,43.1358-49.9088,70.0357-55.3536,93.1661c-14.1894-2.9758-34.6941,0.7037-41.464,2.0888 c-6.8663,0.7771-27.5035,3.6211-40.0764,10.8404c-12.3331-20.3114-25.6406-44.2699-81.459-71.4728 c-21.6279,26.0123-49.9854,89.5415-17.5852,173.9436c-7.4457,27.8569-9.1509,42.2589-8.9058,43.8048s0.2451,1.5459,0.2451,1.5459 s25.09,28.2453,75.4844,3.3505c49.2361-24.3227,58.3798-42.4113,90.3377-48.2348c32.1918-4.3482,46.4826,10.0245,100.8278,17.9232 c55.6236,8.0844,70.7454-26.537,70.7454-26.537s0,0-0.2451-1.5459C414.0185,311.3515,407.9417,298.1834,392.2437,273.9962z M139.0657,242.958c-12.915,8.3869-31.6199,37.2374-34.167,48.6687c-17.1627-11.1351-15.8741-38.4889-15.8741-38.4889 s4.1115,0.8698,6.2544,3.6305c-6.9201-46.9742,13.9584-78.5464,13.9584-78.5464 C120.2605,188.4918,137.1372,224.2466,139.0657,242.958z M367.0157,250.0649c-5.9583-10.0827-32.6706-31.7317-47.5465-35.712 c-3.9544-18.3902,1.0339-57.6119,8.3393-70.7881c0,0,29.6211,23.565,37.5718,70.3757c1.1839-3.2882,4.8246-5.3872,4.8246-5.3872 S379.8919,234.1668,367.0157,250.0649z M302.45,251.9084c0.7726,6.2742-8.6232,12.1165-18.2688,13.357 s-19.6404-2.7659-20.4131-9.0401c-0.7726-6.2742,7.9695-12.4403,17.6151-13.6807 C291.0288,241.3041,301.6773,245.6342,302.45,251.9084z M181.4843,258.6516c9.5466-1.854,19.7838,1.252,21.0222,7.451 c1.2385,6.1991-6.9907,13.1438-16.5373,14.9978s-20.3026-0.7392-21.5411-6.9383S171.9377,260.5057,181.4843,258.6516z" fill="#E49D5B"/></g><g id="change1_2"><path d="M269.209,465.8488c-150.0747,28.0222-140.1512-27.6977-140.1512-27.6977s44.3323,18.0628,136.3285,3.5894 c98.8837-17.6786,122.2178-43.7926,122.2178-43.7926S419.2838,437.8266,269.209,465.8488z M269.209,465.8488 c-150.0747,28.0222-140.1512-27.6977-140.1512-27.6977s44.3323,18.0628,136.3285,3.5894 c98.8837-17.6786,122.2178-43.7926,122.2178-43.7926S419.2838,437.8266,269.209,465.8488z" fill="#38A1F4"/></g><g id="change4_1"><path d="M387.6042,397.9479 c4.3054,30.4845-34.5742,55.1383-133.839,68.7649S134.33,454.9529,134.33,454.9529s30.2653,9.5515,86.3473,6.3092 c127.3502-7.3627,135.7452-46.7483,135.7452-46.7483S377.0846,404.8985,387.6042,397.9479z M387.6042,397.9479 c4.3054,30.4845-34.5742,55.1383-133.839,68.7649S134.33,454.9529,134.33,454.9529s30.2653,9.5515,86.3473,6.3092 c127.3502-7.3627,135.7452-46.7483,135.7452-46.7483S377.0846,404.8985,387.6042,397.9479z" fill="#180447" opacity=".4"/></g><g id="change4_2"><path d="M392.2437,273.9962 c45.4781,46.7235,22.1261,97.3195,22.1261,97.3195s-12.4974,28.3317-99.3465,57.2242 c-86.8492,28.8926-146.7802,16.8684-185.9654,9.6111s-49.0931-39.7589-46.6303-50.829 c22.5513,35.6648,93.585,48.7833,193.0382,33.0138c112.8511-17.8939,115.4041-110.0682,100.1474-137.7597 c22.9007-36.9114,2.8486-95.538,2.8486-95.538C396.4945,200.819,398.4507,249.94,392.2437,273.9962z M392.2437,273.9962 c45.4781,46.7235,22.1261,97.3195,22.1261,97.3195s-12.4974,28.3317-99.3465,57.2242 c-86.8492,28.8926-146.7802,16.8684-185.9654,9.6111s-49.0931-39.7589-46.6303-50.829 c22.5513,35.6648,93.585,48.7833,193.0382,33.0138c112.8511-17.8939,115.4041-110.0682,100.1474-137.7597 c22.9007-36.9114,2.8486-95.538,2.8486-95.538C396.4945,200.819,398.4507,249.94,392.2437,273.9962z" fill="#180447" opacity=".3"/></g><g id="change2_2"><path d="M188.3606,92.2519c3.1286,6.6168-3.3589,16.2474-14.4903,21.5105 c-11.1313,5.2631-22.6912,4.1656-25.8198-2.4512s3.3589-16.2474,14.4903-21.5105C173.6721,84.5376,185.232,85.635,188.3606,92.2519z M350.7947,80.2795C308.1332,57.3698,255.8619,48.375,200.162,57.2069C77.5734,76.6448-2.5279,173.0465,9.6985,286.4283 c2.9046,26.9337,10.843,52.0321,22.5686,73.7428c-0.9157-2.689-29.8531-88.9729,0.1678-167.9338 c0.5365,3.8714,2.0124,7.0354,4.5133,9.2497c11.5216,10.201,40.3723-3.5658,64.4399-30.749s34.2382-57.4891,22.7167-67.6901 c-2.6384-2.336-6.1932-3.4012-10.3834-3.3502C236.6886,26.5792,347.449,78.6755,350.7947,80.2795z M277.54,217.6997 c5.2138-53.3223,27.5751-81.5497,27.6324-81.6384c-20.3516,24.0919-33.2904,53.0031-34.4995,71.2309 c-0.0634,0.9469-0.5072,1.8271-1.2317,2.4403c-0.7235,0.6126-1.6678,0.9057-2.6104,0.8104 c-22.4976-2.259-30.7519-0.9502-41.2024,0.7068c-8.6161,1.3662-15.7461,2.5001-29.5798,7.9588 C244.7904,206.0543,277.3734,223.1863,277.54,217.6997z" fill="#F4F7F0" opacity=".7"/></g><g id="change4_3"><path d="M460.5103,214.518c-11.7471-55.9087-44.6218-103.4111-92.5682-133.7564 c-47.879-30.3031-107.9372-41.6498-169.1112-31.9498c-0.6494,0.1029-1.3041,0.209-1.9517,0.3165 c-60.339,10.0066-113.2483,39.263-148.9814,82.3801C11.6897,175.1978-4.8776,230.5397,1.2476,287.3396 c8.54,79.1926,58.9901,143.4319,122.72,156.2982c0.4673,3.9592,2.117,9.3622,6.9679,14.654 c12.1165,13.2154,45.4968,25.9661,135.7135,11.6611c1.627-0.2579,3.2449-0.5204,4.8312-0.7835 c86.5391-14.3516,113.3582-36.3558,120.618-52.2878c3.1432-6.8992,2.8778-12.813,1.9282-16.8552 c13.3965-7.8796,25.3499-18.3945,35.5441-31.269c10.1763-12.8515,18.3749-27.7596,24.3682-44.3105 c5.9889-16.538,9.6187-34.283,10.7886-52.7416C465.9266,252.7863,464.5078,233.5457,460.5103,214.518z M382.8969,412.9537 c-5.2429,11.1779-26.9001,32.0629-113.0394,46.3482c-1.5745,0.2611-3.157,0.5178-4.7745,0.7744 c-39.6884,6.293-71.3782,7.8157-94.1893,4.5256c-19.4388-2.8038-28.3611-8.5579-32.423-12.8915 c-2.1837-2.3294-3.3619-4.6253-3.9893-6.5449c16.1151,4.434,56.7223,11.6138,128.2797,0.2676 c1.4468-0.2294,2.8848-0.4627,4.3019-0.6977c70.4928-11.6906,104.6063-30.1667,117.6002-39.0143 C384.6307,407.6948,384.2052,410.1643,382.8969,412.9537z M414.0938,356.5858c-3.2527,16.1289-12.8954,28.2686-28.6606,36.0815 c-0.0845,0.0419-0.1627,0.0894-0.2384,0.1406c-0.082,0.0472-0.163,0.0992-0.2438,0.1526c-0.2162,0.1425-0.3785,0.2621-0.5209,0.3818 c-0.0714,0.0505-0.1376,0.103-0.2002,0.1613c-0.2844,0.2621-29.7013,26.5895-118.8915,41.3808 c-1.3707,0.2273-2.7443,0.4501-4.1433,0.672c-89.3456,14.1668-129.8112-1.8554-130.2095-2.019l-0.1045-0.0428l-0.0746-0.0195 c-0.1933-0.0703-0.3735-0.1157-0.522-0.1532l-0.0614-0.0167c-0.0863-0.0242-0.1728-0.0468-0.2604-0.0648 c-0.0589-0.0154-0.1185-0.0279-0.1801-0.0369c-17.4086-2.5529-30.334-11.1143-38.4164-25.4464 c-13.5352-24.0021-10.7402-60.037-0.9836-83.2277c0.5814-1.3809,0.5156-2.9345-0.1807-4.2621 c-20.6683-39.3893-16.8077-81.5669-9.9296-110.0134c7.0873-29.3133,19.1304-50.5454,23.8358-55.9138 c36.3256,15.0908,67.6992,46.7288,76.0681,67.6381c0.5012,1.2512,1.504,2.261,2.7513,2.7707 c0.8586,0.35,1.7953,0.4546,2.7101,0.3029c0.4106-0.0681,0.8121-0.1875,1.1933-0.3548 c18.5782-8.1759,27.1039-10.0043,35.5775-11.4096c1.1357-0.1884,2.2779-0.3694,3.4482-0.5551 c10.3502-1.6411,18.52-2.9365,40.8243-0.6968c0.4377,0.0442,0.8812,0.0301,1.3171-0.0422c0.8904-0.1476,1.7246-0.5336,2.4125-1.116 c1.0277-0.8699,1.6689-2.14,1.759-3.4847c1.4908-22.4738,21.5384-62.2651,51.4135-87.8528 c6.1349,3.6492,24.1552,20.1143,39.9644,45.7975c15.3402,24.9238,32.0587,63.8386,24.5897,107.6886 c-0.2522,1.4783,0.1658,2.9766,1.1467,4.1101C405.7354,296.1704,419.5406,329.5736,414.0938,356.5858z M423.5239,360.2821 c0.1327-0.5738,0.2568-1.1474,0.3724-1.7205c2.8676-14.2203,1.395-30.5887-4.2588-47.3354 c-4.7972-14.2095-12.3378-27.9692-21.2701-38.8275c10.4699-68.4238-33.452-125.0215-47.2012-140.7784 c-4.7105-5.3979-20.7082-22.9894-28.7964-22.7238c-0.218,0.0076-0.4354,0.0292-0.6486,0.0646 c-0.8671,0.1438-1.6832,0.5131-2.36,1.0679c-28.261,23.2062-52.3612,62.2943-56.6237,91.5974 c-19.9965-1.6964-28.5585-0.3387-38.4374,1.2277c-1.1803,0.1871-2.3411,0.3712-3.502,0.5638 c-8.1172,1.3461-16.8004,3.1459-33.4358,10.1602c-13.1175-26.5475-48.1275-56.263-82.1811-69.5877 c-0.8391-0.328-1.752-0.4235-2.6406-0.2762c-0.1917,0.0318-0.3835,0.0753-0.5703,0.1293 c-7.7748,2.2499-17.5459,23.9271-20.3555,30.5174c-8.2003,19.2372-32.4593,86.6455-1.3366,148.4747 c-5.1351,13.0887-8.0493,28.5061-8.2155,43.5024c-0.1959,17.6741,3.467,33.6952,10.593,46.3314 c0.8597,1.5246,1.7769,3.0081,2.7477,4.4449c-40.0352-25.7977-68.2048-75.1292-74.2136-130.8469 C-0.8535,174.5827,77.9029,79.0043,198.4552,59.0033c0.6691-0.111,1.2955-0.2125,1.9417-0.3149 C322.1681,39.38,427.4454,105.7807,450.7231,216.5742C461.9541,270.0295,451.7844,323.1077,423.5239,360.2821z M143.9711,241.9805 c-1.0555-5.3837-2.4006-11.6542-4.4319-17.7299c-1.6432-5.3042-3.8245-10.8556-6.6584-16.9396 c-2.4119-5.2139-5.3618-10.5753-8.7658-15.9316c-3.7475-5.8529-7.235-10.5184-10.9779-14.6866 c-0.8688-0.9655-2.152-1.4143-3.4335-1.2018c-0.6716,0.1114-1.3018,0.4037-1.8222,0.8453 c-1.5884,1.3478-1.7842,3.7368-0.4364,5.3254l0.0724,0.0852c1.933,2.2781,3.8145,4.9151,5.0615,6.7003 c1.8171,2.6874,3.2737,4.9814,4.5714,7.2007c3.0353,5.1625,5.6314,10.2925,7.7181,15.2507 c2.4664,5.8154,4.3249,11.0695,5.6832,16.0665c1.494,5.031,2.4444,10.0302,3.1727,14.3377 c-0.9821,1.1096-1.9764,2.2198-2.9755,3.3354c-1.7687,1.9751-3.5976,4.0174-5.3814,6.0828 c-3.6868,4.252-6.8128,8.2155-9.5551,12.1146c-3.0247,4.2831-5.7512,8.743-8.102,13.2537 c-2.2823,4.3627-4.4064,9.113-6.3123,14.1169c-0.7409,1.9531,0.1825,4.1207,2.1014,4.9366c0.6781,0.2882,1.4194,0.377,2.144,0.2568 c1.3137-0.2178,2.4087-1.0789,2.9292-2.3033c1.9805-4.659,4.1354-9.0288,6.4174-13.0172c2.3368-4.0986,5.0196-8.1362,7.9752-12.0026 c2.7053-3.5529,5.7868-7.1682,9.4224-11.0544c1.7636-1.8932,3.6116-3.8041,5.3987-5.6519c1.6226-1.6777,3.3004-3.4125,4.9527-5.1716 l0.0643-0.0683c1.0378-1.1199,1.4713-2.6678,1.1682-4.1499L143.9711,241.9805z M168.3518,292.8027 c-14.6221,4.0416-23.6929,18.3026-20.2603,31.8526c3.4327,13.5501,18.0688,21.2582,32.6909,17.2167 c14.6221-4.0418,23.6929-18.3026,20.2601-31.8526C197.61,296.4693,182.9738,288.7611,168.3518,292.8027z M304.7911,270.4715 c-15.1475,0.8309-26.5627,12.8029-25.4963,26.7402c1.0662,13.9374,14.21,24.5623,29.3577,23.7316 c15.1476-0.8309,26.5626-12.8029,25.4965-26.7403C333.0826,280.2657,319.9387,269.6407,304.7911,270.4715z M359.4683,236.1681 c-3.6287-3.56-7.601-6.9578-11.8051-10.0974c-3.8119-2.858-8.0107-5.66-12.8342-8.5643c-2.3336-1.4113-4.7055-2.7882-6.9993-4.1198 c-1.2943-0.7513-2.5825-1.4991-3.8587-2.2499c-0.64-4.3212-1.2825-9.3672-1.417-14.5809 c-0.2554-5.2074-0.1134-10.7788,0.4327-17.0674c0.451-5.3643,1.3328-11.0457,2.6214-16.8907 c0.548-2.5139,1.2235-5.1461,2.127-8.2869c0.6272-2.0619,1.6009-5.1519,2.7344-7.9164l0.0434-0.1056 c0.7791-1.9058-0.0847-4.0505-1.966-4.8845c-0.6766-0.2998-1.4191-0.3945-2.1472-0.2738c-1.2599,0.209-2.3209,1.0303-2.838,2.197 c-2.2698,5.1213-4.1431,10.6367-5.895,17.3574c-1.5814,6.1509-2.728,12.1617-3.4093,17.8706 c-0.8122,6.6588-1.1692,12.6125-1.0909,18.1978c-0.0526,6.3943,0.6128,12.7949,1.2706,18.2084 c0.1819,1.515,1.0821,2.8543,2.4079,3.5824l0.0683,0.0375c2.1153,1.1616,4.2479,2.2925,6.3101,3.3862 c2.2708,1.2042,4.6188,2.4493,6.8784,3.7025c4.662,2.5724,8.7107,5.0569,12.3804,7.5973c4.009,2.764,7.8093,5.7737,11.2975,8.9468 c3.4061,3.089,6.8073,6.5778,10.1104,10.3711c0.9131,1.0459,2.2394,1.5208,3.5729,1.2996c0.6544-0.1085,1.2742-0.3867,1.7925-0.8044 c1.6606-1.3384,1.9225-3.7784,0.5841-5.439C366.4788,243.4722,362.9894,239.612,359.4683,236.1681z M289.4014,341.9989 c-1.6252-1.0389-3.7858-0.5631-4.8314,1.0572c-0.0626,0.0963-6.2943,9.6017-15.9602,10.1881 c-8.348,0.5042-13.2762-2.79-16.0679-5.9945c6.6449-7.0309,14.3932-21.4053,12.5587-23.6729 c-2.3661-2.9246-17.1168-2.7224-22.7477-1.8073c-5.631,0.915-19.6866,5.394-21.0049,8.9174 c-1.0272,2.7449,10.9937,14.0212,19.5311,18.544c-1.7461,3.9271-5.4788,8.5672-13.4651,10.7078 c-9.3513,2.5101-18.2761-4.5383-18.3655-4.6099c-1.4999-1.2117-3.6976-0.9821-4.9155,0.5158 c-1.219,1.5001-0.9908,3.705,0.5092,4.9235c0.3686,0.2997,7.3048,5.8275,16.4332,6.6178 c0.9928,6.5243,6.002,22.5822,31.3181,18.4807c25.052-4.0587,24.0421-19.6652,22.2292-26.6798 c9.8636-3.1223,15.5708-11.929,15.8491-12.3666C291.5065,345.1928,291.0268,343.0387,289.4014,341.9989z" fill="#180447"/></g><g id="change5_1"><path d="M377.7422,315.0552c1.5605,5.9954-5.3069,12.9724-15.3386,15.5833 c-10.0317,2.611-19.429-0.1326-20.9895-6.1281c-1.5605-5.9954,5.3069-12.9724,15.3386-15.5833 C366.7844,306.3161,376.1817,309.0598,377.7422,315.0552z M109.9775,358.5689c0.4183,6.1811,9.1415,10.6244,19.4838,9.9245 s18.3873-6.2781,17.969-12.4591c-0.4183-6.1811-9.1415-10.6244-19.4838-9.9245 C117.6042,346.8097,109.5592,352.3878,109.9775,358.5689z M255.3587,379.3123c13.5978-3.6195,16.248-11.1751,14.6883-19.1675 c-0.3353,0.0353-0.6728,0.0665-1.0159,0.0871c-3.9598,0.2391-7.4188-0.2079-10.4196-1.1102 c-8.7351,3.7892-17.7411,8.7547-25.0183,18.6824C236.6087,381.5497,245.0431,382.0582,255.3587,379.3123z" fill="#FC615F"/></g><g id="change2_3"><path d="M404.2023,436.02c14.4379,5.3183,38.9417-22.4934,52.699-55.7072s23.802-79.929,0.6033-85.9538 c-27.0709-7.0305-52.3336,62.9446-54.6083,69.9999C389.6806,405.3492,389.7644,430.7017,404.2023,436.02z M404.2023,436.02 c14.4379,5.3183,38.9417-22.4934,52.699-55.7072s23.802-79.929,0.6033-85.9538c-27.0709-7.0305-52.3336,62.9446-54.6083,69.9999 C389.6806,405.3492,389.7644,430.7017,404.2023,436.02z" fill="#F4F7F0"/></g><g id="change4_4"><path d="M409.542,434.3001 c28.4554,2.0515,55.3225-75.0489,52.6208-83.1934c-37.0791,54.7368-61.7162,32.7427-61.7162,32.7427 S381.0867,432.2487,409.542,434.3001z M409.542,434.3001c28.4554,2.0515,55.3225-75.0489,52.6208-83.1934 c-37.0791,54.7368-61.7162,32.7427-61.7162,32.7427S381.0867,432.2487,409.542,434.3001z" fill="#180447" opacity=".3"/></g><g id="change4_5"><path d="M459.6038,292.5507c-33.3632-9.5062-57.3894,59.0291-65.7788,87.2852 c-1.2087,3.8285-2.3001,7.7139-3.2083,11.5761c-0.0334,0.1336-0.055,0.2209-0.055,0.2209c-0.0492,0.1868-0.0937,0.3869-0.136,0.5921 c-4.8511,21.2283-3.9382,41.5078,14.4828,46.7565c25.8101,7.3541,48.0077-37.0563,60.3891-72.2055 c0.0048-0.0136,0.0093-0.0269,0.0141-0.0405c4.9259-12.4366,9.6004-27.0436,10.9099-40.0853 c0.0028-0.016,0.0064-0.0357,0.0064-0.0357c-0.0003-0.0063-0.0006-0.0116-0.0009-0.0179 C477.8367,310.4563,474.279,296.7322,459.6038,292.5507z M453.9414,375.9402c-11.8048,26.9561-29.3,57.724-46.0673,54.5676 c-19.5768-3.6853-7.9624-45.8594,2.6963-74.9442c11.8048-26.9561,29.2998-58.6953,46.0668-55.5389 C476.214,303.7101,464.6002,346.8556,453.9414,375.9402z" fill="#180447"/></g><g id="change2_4"><path d="M158.5668,310.3157c-1.4066-1.9974,0.0248-5.4276,3.1971-7.6616c3.1723-2.234,6.8842-2.4258,8.2908-0.4285 s-0.0248,5.4276-3.1971,7.6616S159.9734,312.3131,158.5668,310.3157z M299.4284,286.4724c3.1723-2.234,4.6037-5.6642,3.1971-7.6616 s-5.1185-1.8055-8.2908,0.4285s-4.6037,5.6642-3.1971,7.6616C292.5442,288.8982,296.2561,288.7064,299.4284,286.4724z" fill="#F4F7F0"/></g><g id="change4_6"><path d="M412.1405,24.4551c-6.0984,11.9758-12.1968,23.9515-18.2952,35.9274 c-3.1526,6.191-13.5038,2.5974-10.3127-3.6691c1.7318-3.4009,3.4636-6.8018,5.1955-10.2027 c-6.4189-3.3899-12.8378-6.7799-19.2567-10.1698c-1.9969,4.5472-4.0329,9.0776-6.1477,13.5746 c-2.9713,6.3182-13.3121,2.7089-10.3127-3.6691c2.8122-5.9799,5.4902-12.0165,8.1112-18.0779 c0.1442-0.5836,0.3936-1.1536,0.728-1.686c3.3051-7.68,6.5263-15.3966,9.7995-23.0936c2.7448-6.4544,13.0747-2.8258,10.3127,3.6691 c-2.731,6.4219-5.4261,12.8572-8.1628,19.274c6.6208,3.4965,13.2417,6.9932,19.8624,10.4898 c2.722-5.3453,5.4439-10.6905,8.1658-16.0358C404.9804,14.5949,415.3315,18.1886,412.1405,24.4551z M422.1029,49.2345 c-5.2322,8.255-10.4645,16.5101-15.6968,24.7652c-3.7696,5.9473,5.2466,12.1529,9.0223,6.196 c5.2323-8.2551,10.4646-16.5101,15.6969-24.7652C434.8948,49.4832,425.8786,43.2775,422.1029,49.2345z M441.0623,32.8322 c-0.396-0.4582-0.7919-0.9165-1.1878-1.3747c-0.4555-0.5682-1.0135-0.987-1.6739-1.2564c-0.6255-0.3891-1.3148-0.5969-2.0682-0.6234 c-0.7493-0.0831-1.4615,0.0224-2.1368,0.3167c-0.6926,0.1707-1.3054,0.5042-1.8385,1.0002 c-0.3113,0.3474-0.6226,0.6948-0.9338,1.0422c-0.5558,0.8151-0.8711,1.7151-0.946,2.6999c0.0297,0.4884,0.0594,0.9767,0.0891,1.465 c0.1918,0.9434,0.6011,1.7802,1.2278,2.5104c0.3959,0.4582,0.7918,0.9164,1.1877,1.3747c0.4555,0.5682,1.0135,0.9871,1.674,1.2565 c0.6254,0.3891,1.3149,0.5968,2.0682,0.6233c0.7493,0.0831,1.4616-0.0224,2.1369-0.3166c0.6926-0.1707,1.3055-0.5042,1.8385-1.0003 c0.3112-0.3474,0.6226-0.6948,0.9338-1.0422c0.5557-0.8151,0.871-1.7151,0.9459-2.6999c-0.0297-0.4883-0.0594-0.9767-0.0891-1.465 C442.0982,34.3992,441.6889,33.5624,441.0623,32.8322z M469.9106,50.6791c-9.7819,8.2663-19.0888,17.0083-28.3918,25.803 c-5.1093,4.8302,2.0236,13.1312,7.1546,8.2805c9.303-8.7948,18.6098-17.5368,28.3917-25.803 C482.4534,54.4063,475.2961,46.1282,469.9106,50.6791z M428.1603,89.8209c-7.0228-0.5122-7.8305,10.4011-0.7961,10.9142 C434.387,101.2473,435.1947,90.334,428.1603,89.8209z" fill="#180447"/></g></svg>