<?xml version="1.0" encoding="UTF-8"?><svg xmlns="http://www.w3.org/2000/svg" xmlns:xlink="http://www.w3.org/1999/xlink" height="502.0" preserveAspectRatio="xMidYMid meet" version="1.0" viewBox="-0.7 0.0 483.3 502.0" width="483.3" zoomAndPan="magnify"><g id="change1_1"><path d="M479.958,488.008c-1.693,9.134-55.61,10.436-78.03,10.436c-69.352,0-105.714-5.716-172.298-5.716 c-30.446,0-72.281,1.779-94.977,3.255c-46.818,3.046-116.971,6.055-127.696-3.132c-7.331-6.279-2.933-28.77-2.933-38.498 c0-79.383-4.717-140.101-2.377-210.135C2.105,230.507-0.419,216.803,3,208.657c3.267-7.787,29.16-23.663,36.243-30.446 c39.612-37.932,76.677-62.258,114.311-102.154c27.784-29.456,73.302-75.061,88.799-75.061c18.113,0,52.178,46.378,81.047,71.978 c61.35,54.407,147.913,119.776,152.93,137.353C479.82,222.552,482.591,473.809,479.958,488.008z" fill="#FCD4D4"/></g><g id="change2_1"><path d="M82.172,253.228c-5.129-2.684-10.316-5.285-15.516-7.869c0.178-52.791,0.201-103.914-1.934-131.73 c-1.039-13.541-2.078-27.082-3.282-37.713c37.722,5.274,76.05,2.62,114.047-0.043c48.789-3.419,97.578-6.838,146.368-10.257 c26.346-1.847,57.362-1.704,73.302,19.352c9.53,12.589,10.755,29.393,11.617,45.158c1.252,22.941,3.977,69.436,6.716,116.168 c-4.083,2.045-8.154,4.107-12.187,6.224c-42.79,22.46-81.826,51.126-121.779,78.336l-0.006,0.012 c-7.821-7.403-15.738-14.733-23.815-21.948c-2.923-2.611-6.247-5.373-10.523-5.757c-5.737-0.516-10.518,3.376-14.355,6.946 l-24.472,22.772C165.612,305.212,125.806,276.065,82.172,253.228z" fill="#FFFBEB"/></g><g id="change3_1"><path d="M139.535,377.935c-4.858-3.562-12.202-7.123-18.194-7.735c-5.993-0.611-12.834,2.848-13.867,8.781 c-0.998,5.741,3.526,12.402,8.119,15.987c8.886,6.937,19.277,12.841,26.296,19.368c4.224-4.677,9.445-9.356,13.669-14.034 c5.372-5.947,11.02-12.509,11.682-20.495c0.292-3.512-2.902-9.28-8.61-10.384C153.499,368.429,144.61,371.794,139.535,377.935" fill="#FCE4A7"/></g><g id="change4_1"><path d="M481.436,348.416c-0.721-59.652-2.241-131.682-4.148-138.362c-2.945-10.314-32.056-35.663-68.762-66.376 c-0.291-5.145-0.547-9.731-0.758-13.609c-0.46-8.411-0.999-18.015-3.338-27.194c-0.003-0.013,0.001-0.026-0.002-0.039 c-0.02-0.075-0.047-0.152-0.068-0.227c-1.682-6.496-4.268-12.773-8.409-18.244c-15.8-20.87-46.358-21.692-74.166-19.744 l-5.477,0.384c-7.494-7.275-15.214-15.511-22.745-23.547C273.582,20.138,254.709,0,242.353,0c-15.23,0-57.09,40.988-89.523,75.374 c-0.345,0.366-0.689,0.719-1.034,1.083c-29.917,1.822-60.345,2.648-90.217-1.529c-0.305-0.045-0.612,0.059-0.833,0.273 c-0.221,0.215-0.33,0.52-0.295,0.826c1.202,10.612,2.257,24.369,3.278,37.677c0.79,10.293,1.283,23.902,1.583,39.606 c-8.808,7.585-17.736,15.544-26.757,24.182c-2.46,2.356-7.416,5.963-12.664,9.782C15.77,194.64,4.3,202.987,2.083,208.272 c-2.332,5.556-2.017,13.226-1.651,22.106c0.185,4.494,0.377,9.142,0.221,13.807c-1.366,40.863-0.328,78.624,0.77,118.603 c0.789,28.75,1.606,58.479,1.606,91.565c0,2.324-0.265,5.498-0.545,8.86c-0.94,11.277-2.109,25.31,3.826,30.394 C11.332,497.909,28.123,500,57.644,500c20.305,0,46.237-1.017,77.074-3.022c24.248-1.577,65.753-3.253,94.912-3.253 c32.926,0,59.023,1.43,84.26,2.813c26.048,1.427,52.982,2.903,88.038,2.903c8.022,0,28.649-0.176,46.876-1.797 c27.688-2.463,31.6-6.575,32.134-9.454C482.35,480.574,482.186,410.396,481.436,348.416z M475.099,209.849 c-16.766,13.017-36.252,22.714-55.106,32.09c-1.85,0.92-3.721,1.852-5.598,2.79c-2.131-36.37-4.298-73.355-5.714-98.324 C442.612,174.831,471.173,199.724,475.099,209.849z M394.363,85.567c1.773,2.342,3.248,4.85,4.488,7.467 c-1.872-2.006-4.078-3.649-6.491-4.496c-6.03-2.116-12.628-1.462-17.066-0.788c-5.955,0.907-11.82,2.451-17.452,4.593 c-4.003-12.345-15.105-22.502-27.839-26.211C355.842,64.941,380.607,67.396,394.363,85.567z M242.353,1.992 c11.493,0,30.08,19.832,49.756,40.827c7.123,7.601,14.415,15.379,21.539,22.372l-138.23,9.687 c-6.862,0.481-13.769,0.964-20.703,1.401C199.944,28.373,231.061,1.992,242.353,1.992z M62.572,77.076 c37.577,5.076,75.904,2.389,112.985-0.21l145.746-10.214c15.398,0.768,30.742,12.745,34.944,27.283 c0.077,0.269,0.265,0.493,0.517,0.617s0.544,0.135,0.805,0.033c5.798-2.29,11.863-3.927,18.024-4.865 c4.228-0.643,10.498-1.27,16.107,0.698c4.973,1.744,9.283,7.7,10.702,12.596c2.375,9.116,2.917,18.748,3.377,27.164 c1.246,22.83,3.995,69.754,6.678,115.523c-3.883,1.948-7.784,3.926-11.616,5.937c-34.636,18.179-67.335,40.778-98.958,62.632 c-7.274,5.027-14.787,10.218-22.222,15.286c-7.654-7.193-15.407-14.335-23.294-21.381c-3.156-2.818-6.612-5.604-11.097-6.007 c-5.912-0.532-10.762,3.151-15.123,7.209c-7.929,7.379-15.898,14.794-23.891,22.231c-7.603-5.167-15.285-10.46-22.724-15.586 c-32.243-22.219-65.584-45.194-100.897-63.676c-4.884-2.557-9.834-5.06-14.981-7.649c0.173-51.882,0.188-103.441-1.939-131.149 C64.733,100.752,63.719,87.536,62.572,77.076z M27.061,188.885c5.534-4.027,10.312-7.505,12.87-9.954 c8.561-8.198,17.047-15.796,25.427-23.037c0.45,25.692,0.41,56.655,0.308,87.803c-0.363-0.183-0.717-0.361-1.083-0.545 c-20.934-10.52-42.565-21.398-60.194-35.017C7.332,203.243,18.213,195.325,27.061,188.885z M7.604,492.093 c-5.161-4.421-3.991-18.463-3.137-28.716c0.296-3.551,0.552-6.618,0.552-9.025c0-33.113-0.817-62.856-1.607-91.619 c-1.097-39.947-2.133-77.68-0.77-118.482c0.158-4.739-0.034-9.424-0.221-13.955c-0.32-7.783-0.623-15.16,1.134-20.292 c17.71,13.598,39.264,24.441,60.132,34.928c6.267,3.149,12.186,6.124,18.024,9.179c35.207,18.426,68.497,41.366,100.691,63.551 c7.319,5.043,14.874,10.248,22.359,15.337c-13.531,12.589-27.139,25.25-40.782,37.942c-1.403-1.189-3.129-2.105-5.158-2.498 c-0.652-0.126-1.366-0.19-2.121-0.19c-4.986,0-12.396,2.862-17.324,8.342c-4.77-3.324-11.935-6.775-17.933-7.387 c-0.485-0.05-0.984-0.075-1.482-0.075c-5.712,0-12.373,3.392-13.467,9.676c-1.085,6.242,3.639,13.158,8.487,16.943 c3.696,2.885,7.659,5.599,11.491,8.223c0.386,0.265,0.767,0.526,1.15,0.789c-0.433,0.403-0.866,0.806-1.299,1.208 c-32.816,30.529-65.615,61.041-97.824,91.012C15.127,495.819,9.652,493.847,7.604,492.093z M166.248,379.723 c-0.613,7.388-5.538,13.388-11.429,19.91c-2.094,2.319-4.487,4.689-6.8,6.98c-2.087,2.068-4.238,4.198-6.194,6.315 c-4.045-3.623-9.001-7.017-14.229-10.597c-3.807-2.607-7.743-5.302-11.39-8.149c-4.534-3.54-8.653-9.84-7.75-15.031 c0.907-5.212,6.604-8.025,11.504-8.025c0.431,0,0.862,0.022,1.28,0.064c5.949,0.607,13.18,4.228,17.707,7.548 c0.425,0.312,1.02,0.238,1.357-0.169c4.468-5.407,11.782-8.324,16.395-8.324c0.628,0,1.215,0.052,1.743,0.154 C163.597,371.396,166.509,376.587,166.248,379.723z M401.928,497.445c-35.002,0-61.909-1.474-87.929-2.9 c-25.265-1.385-51.389-2.816-84.369-2.816c-29.201,0-70.763,1.678-95.042,3.257c-30.795,2.004-56.683,3.02-76.945,3.02 c-10.975,0-19.629-0.305-26.453-0.806c31.782-29.573,64.126-59.662,96.491-89.771c0.541-0.503,1.081-1.006,1.622-1.509 c4.425,3.055,8.552,6.022,11.908,9.144c0.184,0.172,0.427,0.267,0.678,0.267c0.014,0,0.028,0,0.044-0.002 c0.267-0.011,0.517-0.129,0.696-0.327c2.093-2.318,4.482-4.685,6.793-6.974c2.332-2.31,4.744-4.699,6.876-7.06 c4.734-5.241,11.218-12.42,11.936-21.08c0.185-2.22-0.813-5.167-2.841-7.543c13.921-12.951,27.804-25.867,41.607-38.711 c0.009-0.008,0.017-0.016,0.026-0.024c8.19-7.62,16.354-15.217,24.478-22.777c4.023-3.744,8.45-7.143,13.588-6.683 c3.88,0.349,6.92,2.805,9.948,5.509c8.003,7.149,15.871,14.398,23.637,21.701c0.01,0.018,0.012,0.038,0.023,0.055 c0.103,0.152,0.242,0.262,0.396,0.335c24.572,23.127,48.044,46.831,70.922,69.943c30.928,31.245,62.898,63.531,97.286,94.078 C433.968,496.904,417.873,497.445,401.928,497.445z M478.979,487.824c-0.671,3.622-12.382,6.152-28.953,7.706 c-34.875-30.871-67.265-63.591-98.592-95.237c-22.677-22.909-45.933-46.402-70.279-69.345c7.319-4.991,14.705-10.094,21.861-15.039 c31.574-21.82,64.223-44.384,98.751-62.507c6.307-3.311,12.817-6.548,19.113-9.679c18.894-9.395,38.419-19.113,55.313-32.202 l-0.143,5.074C478.932,256.739,481.557,473.92,478.979,487.824z M147.937,151.262c9.038-1.289,18.344-0.544,27.254-2.725 c1.871-0.458,2.662,2.425,0.794,2.882c-4.121,1.008-8.313,1.39-12.522,1.637c0.098,10.912,1.272,21.859-0.008,32.742 c-0.222,1.89-3.212,1.906-2.988,0c1.274-10.829,0.117-21.723,0.01-32.582c-3.926,0.195-7.856,0.373-11.746,0.928 C146.847,154.413,146.041,151.534,147.937,151.262z M177.097,155.818c0.06,4.574,0.06,9.148,0.045,13.722 c0.895-1.515,2.069-2.842,3.66-3.612c2.583-1.249,5.334-0.668,6.949,1.744c1.584,2.366,1.906,5.554,2.108,8.315 c0.191,2.62,0.122,5.241,0.087,7.865c-0.025,1.924-3.013,1.923-2.988,0c0.034-2.536,0.099-5.069-0.069-7.601 c-0.15-2.242-0.357-4.86-1.561-6.823c-0.399-0.651-0.855-1.088-1.47-1.183c-0.822-0.126-1.834,0.313-2.519,0.85 c-2.058,1.611-2.939,4.545-3.503,6.977c-0.412,1.776-0.666,3.599-0.734,5.424c-0.001,0.616-0.005,1.232-0.005,1.847c0,0,0,0,0,0 c0,1.931-2.924,1.916-2.988,0h0c0-9.175,0.121-18.351,0-27.526C174.083,153.892,177.072,153.897,177.097,155.818z M202.771,181.553 c1.637-1.202,2.784-2.883,3.641-4.709c0.095,1.752,0.189,3.504,0.305,5.256c0.069,1.037,0.051,2.865,1.614,2.74 c0.805-0.066,1.494-0.641,1.494-1.494c0-0.107-0.017-0.215-0.043-0.321c-0.009-0.067-0.02-0.133-0.025-0.194 c-0.029-0.357-0.051-0.713-0.074-1.07c-0.073-1.162-0.135-2.326-0.2-3.488c-0.145-2.627-0.278-5.255-0.475-7.878 c-0.067-0.889-0.088-1.842-0.3-2.711c-0.007-0.027-0.026-0.046-0.034-0.072c-0.167-0.55-0.62-0.999-1.367-0.997 c-0.025,0-0.051,0.002-0.076,0.002c-0.004,0-0.008,0-0.013,0c-4.079,0.024-8.333,0.728-11.317,3.751 c-2.436,2.469-4.364,6.713-2.317,10.004C195.496,183.444,200.045,183.553,202.771,181.553z M209.384,182.289 c0.003,0.006,0.007,0.012,0.01,0.018c-0.006-0.007-0.012-0.015-0.019-0.021C209.379,182.286,209.381,182.288,209.384,182.289z M195.75,176.93c0.024-0.499,0.186-1.206,0.41-1.764c0.236-0.587,0.687-1.305,1.116-1.857c2.028-2.61,5.067-3.443,8.238-3.65 c-0.112,0.597-0.236,1.191-0.382,1.78c-0.285,1.147-0.64,2.272-1.073,3.372c-0.018,0.046-0.037,0.092-0.056,0.137 c-0.015,0.035-0.037,0.085-0.044,0.102c-0.058,0.131-0.118,0.262-0.178,0.392c-0.142,0.304-0.293,0.603-0.454,0.896 c-0.284,0.519-0.599,1.029-0.959,1.498c-0.033,0.039-0.113,0.137-0.143,0.17c-0.09,0.103-0.179,0.205-0.272,0.306 c-0.215,0.229-0.444,0.44-0.681,0.645c-0.04,0.035-0.048,0.043-0.057,0.052c-0.012,0.007-0.019,0.011-0.059,0.038 c-0.127,0.087-0.253,0.172-0.384,0.252c-0.113,0.068-0.227,0.133-0.343,0.192c-0.055,0.029-0.232,0.105-0.264,0.122 c-1.063,0.394-2.311,0.481-3.32-0.111c-0.434-0.254-0.704-0.596-0.87-0.981c-0.029-0.066-0.159-0.522-0.201-0.746 c-0.003-0.014-0.004-0.019-0.006-0.029c-0.001-0.01-0.001-0.016-0.002-0.03c-0.007-0.078-0.013-0.154-0.016-0.232 C195.741,177.299,195.742,177.115,195.75,176.93z M214.866,182.261c0-3.883-0.004-7.765-0.088-11.647 c-0.041-1.927,2.948-1.92,2.986-0.001c0.01,0.472,0.01,0.945,0.018,1.417c1.202-2.049,3.067-3.919,5.442-4.37 c2.167-0.413,3.904,0.848,4.782,2.771c0.969,2.126,1.229,4.522,1.37,6.829c0.12,1.938,0.094,3.876,0.069,5.814 c-0.025,1.924-3.013,1.923-2.988,0c0.026-1.987,0.051-3.973-0.078-5.957c-0.033-0.529-0.078-1.057-0.138-1.583 c-0.012-0.106-0.025-0.212-0.038-0.319c-0.005-0.033-0.035-0.252-0.038-0.272c-0.035-0.23-0.073-0.458-0.115-0.687 c-0.09-0.478-0.195-0.954-0.329-1.421c-0.057-0.201-0.118-0.398-0.187-0.594c-0.038-0.113-0.082-0.226-0.124-0.337 c-0.001-0.003-0.001-0.003-0.002-0.005c-0.002-0.004-0.002-0.004-0.005-0.01c-0.096-0.198-0.19-0.393-0.303-0.581 c-0.067-0.113-0.434-0.544-0.142-0.236c-0.103-0.108-0.219-0.217-0.315-0.329c-0.053-0.029-0.12-0.063-0.146-0.098 c-0.022-0.012-0.046-0.024-0.068-0.035c-0.046-0.008-0.127-0.034-0.148-0.045c-0.004-0.002-0.01-0.003-0.015-0.005 c0.018,0,0.03,0,0.051-0.001c-0.019,0.001-0.039,0-0.058-0.002c-0.081-0.029-0.187-0.016-0.16-0.005 c-0.007,0-0.014-0.002-0.02-0.001c-0.019,0.003-0.04,0.002-0.06,0.003c-0.003,0-0.004,0-0.008,0c0.002,0,0.002,0,0.004,0 c-0.062,0.004-0.125,0.007-0.184,0.01c0.099-0.005,0.154-0.008,0.18-0.01c-0.045,0.004-0.151,0.014-0.202,0.03 c-0.202,0.063-0.405,0.118-0.602,0.197c-0.046,0.025-0.24,0.116-0.264,0.13c-0.141,0.074-0.279,0.152-0.414,0.237 c-0.251,0.156-0.358,0.236-0.465,0.325c-0.388,0.325-0.842,0.801-1.093,1.13c-0.617,0.81-1.205,1.994-1.551,2.923 c-0.853,2.291-1.281,4.717-1.618,7.13c-0.103,0.744-0.982,1.149-1.639,1.07C215.435,183.641,214.866,182.998,214.866,182.261z M224.259,170.557c0.003,0.001,0.005,0.002,0.008,0.003c-0.103,0.002-0.155-0.002-0.168-0.007 C224.152,170.549,224.206,170.554,224.259,170.557z M236.892,172.624c-0.082-6.78-0.689-13.533-0.785-20.31 c-0.027-1.927,2.961-1.921,2.988,0c0.092,6.492,0.643,12.962,0.761,19.455c3.328-2.88,5.882-6.78,8.135-10.476 c1-1.64,3.584-0.138,2.581,1.508c-2.38,3.905-5.073,7.842-8.499,10.935c1.719,0.873,3.343,1.936,4.874,3.103 c2.227,1.698,4.327,3.579,5.961,5.868c1.12,1.57-1.472,3.06-2.581,1.508c-1.377-1.931-3.266-3.575-5.15-4.995 c-1.608-1.212-3.351-2.364-5.206-3.2c0.074,2.352,0.173,4.703,0.292,7.052c0.098,1.925-2.891,1.914-2.988,0 C237.099,179.593,236.934,176.108,236.892,172.624z M270.078,196.675c-1.009-1.645,1.578-3.144,2.58-1.508 c1.441,2.352,4.771,2.655,7.24,2.174c3.205-0.625,5.318-2.847,6.29-5.918c1.599-5.047,1.206-10.148,0.607-15.261 c-0.865,2.594-2.399,5.396-5.299,5.974c-2.675,0.532-4.882-0.756-5.894-3.25c-0.985-2.429-0.949-5.252-0.765-7.824 c0.161-2.244,0.495-4.479,0.93-6.685c0.373-1.888,3.252-1.083,2.883,0.794c-0.408,2.065-0.718,4.148-0.848,6.249 c-0.128,2.07-0.241,4.448,0.577,6.408c0.27,0.65,0.633,1.149,1.152,1.357c0.576,0.23,1.556,0.111,2.209-0.324 c1.907-1.27,2.486-4.245,2.925-6.316c0.512-2.408,0.701-4.875,1.235-7.277c0.374-1.686,2.918-1.245,2.934,0.398 c0.047,4.769,1.006,9.45,1.377,14.192c0.491,6.268,0.048,14.978-5.754,18.865C280.254,201.536,272.915,201.305,270.078,196.675z M303.177,183.192c3.798-1.112,5.813-5.007,6.179-8.709c0.198-2.011-0.144-4.188-1.185-5.942c-1.161-1.957-3.046-3.029-5.266-3.315 c-3.719-0.405-7.328,1.33-9.105,4.668c-1.564,2.94-1.736,6.719-0.07,9.658C295.556,182.775,299.653,184.224,303.177,183.192z M302.887,168.21c0.006,0.001,0.012,0.003,0.018,0.004c-0.029-0.004-0.046-0.006-0.058-0.007 C302.86,168.209,302.874,168.209,302.887,168.21z M295.577,174.088c0.007-0.097,0.009-0.142,0.009-0.165 c0.004-0.018,0.01-0.047,0.02-0.103c0.115-0.641,0.28-1.261,0.515-1.867c0.034-0.074,0.125-0.283,0.149-0.334 c0.082-0.164,0.168-0.327,0.261-0.485c0.092-0.159,0.189-0.315,0.292-0.467c0.032-0.047,0.175-0.235,0.219-0.297 c0.219-0.263,0.447-0.516,0.699-0.748c0.073-0.067,0.413-0.354,0.322-0.282c-0.084,0.065,0.265-0.185,0.358-0.244 c0.177-0.115,0.36-0.22,0.547-0.318c0.055-0.029,0.26-0.125,0.307-0.151c0.366-0.149,0.747-0.264,1.131-0.348 c0.081-0.018,0.385-0.069,0.432-0.08c0.196-0.023,0.393-0.039,0.589-0.047c0.473-0.019,0.943,0.006,1.413,0.055 c-0.065-0.004,0.292,0.059,0.371,0.079c0.177,0.043,0.349,0.099,0.523,0.153c0.023,0.007,0.078,0.028,0.11,0.04 c0.046,0.021,0.092,0.041,0.136,0.064c0.169,0.089,0.336,0.181,0.496,0.286c0.054,0.036,0.172,0.127,0.209,0.154 c0.105,0.091,0.209,0.183,0.308,0.283c0.094,0.095,0.18,0.195,0.266,0.296c0.009,0.021,0.201,0.275,0.234,0.327 c0.091,0.143,0.174,0.288,0.253,0.437c0.024,0.046,0.13,0.272,0.166,0.343c0.025,0.068,0.098,0.26,0.114,0.306 c0.071,0.208,0.131,0.419,0.184,0.632c0.044,0.173,0.079,0.347,0.113,0.523c0.014,0.072,0.025,0.145,0.037,0.217 c0.042,0.384,0.063,0.771,0.061,1.159c-0.002,0.374-0.027,0.746-0.066,1.117c-0.001,0.005-0.002,0.016-0.003,0.023 c0,0.001,0,0.001,0,0.002c-0.01,0.074-0.036,0.236,0,0c-0.014,0.092-0.028,0.184-0.045,0.275c-0.036,0.184-0.071,0.37-0.113,0.553 c-0.199,0.849-0.376,1.339-0.683,1.938c-0.396,0.775-0.65,1.139-1.123,1.629c-0.107,0.112-0.217,0.219-0.332,0.323 c-0.065,0.06-0.131,0.116-0.198,0.174c-0.016,0.014-0.01,0.01-0.018,0.018c-0.298,0.218-0.614,0.401-0.942,0.569 c-0.017,0.009-0.051,0.023-0.081,0.036c-0.058,0.023-0.116,0.047-0.175,0.066c-0.171,0.055-0.342,0.108-0.518,0.151 c-0.064,0.015-0.269,0.056-0.338,0.071c-0.056,0.006-0.136,0.016-0.156,0.018c-0.13,0.008-0.26,0.018-0.39,0.023 c-0.404,0.015-0.807,0-1.21-0.034c-0.018-0.001-0.059-0.007-0.095-0.012c-0.069-0.011-0.138-0.021-0.205-0.035 c-0.198-0.042-0.395-0.085-0.59-0.139c-0.168-0.047-0.33-0.105-0.495-0.16c-0.05-0.017-0.079-0.026-0.1-0.032 c-0.009-0.006-0.026-0.016-0.065-0.036c-0.31-0.157-0.6-0.33-0.89-0.519c-0.045-0.029-0.071-0.044-0.089-0.054 c-0.013-0.015-0.033-0.036-0.073-0.075c-0.113-0.108-0.231-0.208-0.341-0.319c-0.11-0.111-0.208-0.229-0.314-0.342 c-0.042-0.045-0.062-0.064-0.075-0.074c-0.011-0.021-0.031-0.056-0.077-0.128c-0.168-0.26-0.332-0.52-0.47-0.797 c-0.019-0.038-0.101-0.218-0.127-0.271c-0.011-0.028-0.021-0.054-0.025-0.067c-0.031-0.093-0.068-0.183-0.099-0.276 c-0.099-0.299-0.179-0.605-0.242-0.913c-0.024-0.116-0.042-0.234-0.061-0.351c0-0.031-0.03-0.302-0.035-0.378 c-0.021-0.302-0.025-0.605-0.015-0.906C295.552,174.412,295.564,174.25,295.577,174.088z M306.351,174.648 C306.351,174.648,306.352,174.648,306.351,174.648c0-0.001,0-0.001,0-0.001C306.352,174.648,306.352,174.648,306.351,174.648z M312.16,173.753c-0.086-2.221,0.154-4.427,0.153-6.644c0-1.926,2.988-1.922,2.987-0.002c0.001,2.267-0.248,4.521-0.147,6.791 c0.026,0.611,0.071,1.223,0.151,1.831c0.012,0.075,0.034,0.226,0.037,0.24c0.024,0.14,0.047,0.281,0.074,0.42 c0.052,0.273,0.113,0.545,0.184,0.815c0.069,0.26,0.145,0.519,0.234,0.773c0.032,0.094,0.068,0.187,0.104,0.28 c0.026,0.06,0.077,0.178,0.089,0.201c0.113,0.221,0.227,0.439,0.36,0.649c0.045,0.069,0.092,0.136,0.14,0.204 c0.036,0.043,0.11,0.137,0.133,0.16c0.11,0.112,0.218,0.223,0.333,0.33c0.022,0.021,0.032,0.032,0.045,0.045 c0.008,0.005,0.01,0.006,0.019,0.012c0.178,0.119,0.362,0.223,0.553,0.316c0.06,0.024,0.141,0.057,0.166,0.063 c0.124,0.032,0.245,0.068,0.37,0.099c-0.003,0,0.11,0.019,0.188,0.034c0.083,0.007,0.23,0.022,0.222,0.022 c0.321,0.013,0.643,0.008,0.961-0.027c0.056-0.013,0.228-0.044,0.25-0.051c0.129-0.036,0.257-0.07,0.385-0.112 c0.034-0.011,0.05-0.015,0.07-0.021c0.017-0.009,0.029-0.016,0.056-0.03c0.116-0.059,0.229-0.119,0.34-0.187 c0.083-0.051,0.163-0.107,0.242-0.164c0.038-0.035,0.159-0.135,0.177-0.153c0.68-0.686,1.179-1.554,1.502-2.47 c0.228-0.647,0.403-1.313,0.542-1.985c0.139-0.674,0.211-1.163,0.269-1.699c0.132-1.243,0.177-2.497,0.147-3.747 c-0.015-0.578-0.045-1.155-0.097-1.731c-0.02-0.223-0.045-0.445-0.07-0.667c-0.001-0.01-0.002-0.011-0.004-0.023 c-0.014-0.092-0.029-0.184-0.045-0.276c-0.134-0.798,0.2-1.606,1.044-1.838c0.722-0.198,1.704,0.248,1.838,1.044 c0.506,2.989,0.433,6.112-0.081,9.093c-0.467,2.708-1.541,5.817-4.067,7.262c-2.395,1.37-5.829,0.961-7.622-1.204 C312.645,179.295,312.263,176.404,312.16,173.753z M330.683,150.375c-0.319-1.883,2.56-2.686,2.881-0.793 c1.233,7.281,1.584,14.824,1.594,22.2c0.003,1.926-2.985,1.922-2.988,0C332.16,164.679,331.87,157.388,330.683,150.375z M333.274,180.284c-1.926,0-1.922-2.988,0-2.988C335.2,177.296,335.196,180.284,333.274,180.284z"/></g></svg>