<?xml version="1.0" encoding="UTF-8"?><svg xmlns="http://www.w3.org/2000/svg" xmlns:xlink="http://www.w3.org/1999/xlink" height="521.4" preserveAspectRatio="xMidYMid meet" version="1.0" viewBox="-0.8 -0.2 567.6 521.4" width="567.6" zoomAndPan="magnify"><g data-name="Layer 2"><g data-name="Layer 2"><g id="change1_1"><path d="M479.34,492.94c0,15.59-85.27,28.22-190.45,28.22S98.44,508.53,98.44,492.94s85.27-28.21,190.45-28.21S479.34,477.36,479.34,492.94Z" fill="#84b7b4"/></g><g id="change2_1"><path d="M102.73,269.79c-10.87-1.62-20.4-7.87-28.6-14.88a122.33,122.33,0,0,1-21-23.32,110.49,110.49,0,0,1-13.73-28.92c-3.34-10.41-5.24-21.53-3.85-32.44.81-6.36,10.52-4.26,9.72,2.05-1.17,9.15.86,18.55,3.55,27.25A102.83,102.83,0,0,0,61,225.43a111.31,111.31,0,0,0,18.21,20.73c7.22,6.57,15.72,12.44,25.56,13.91,6.34.95,4.26,10.66-2,9.72Z" fill="#231f20"/></g><g id="change2_2"><path d="M44.8,133c13,2.41,10.45,15.65,6.38,24.53,2.47-2.06,6.23-4.87,9.22-1.73,2.75,2.9-1,7-3.29,9-5.77,5-11.36,10.18-12.19,18.3l-2,14.92c-2.59-14-11.39-25.42-13.43-39.38C28,148.61,30.33,130.35,44.8,133Z" fill="#231f20"/></g><g id="change2_3"><path d="M434.82,256.65c11,.66,21.59-3.49,31.06-8.66a122.55,122.55,0,0,0,25.31-18.5A110.77,110.77,0,0,0,510.6,204c5.41-9.49,9.56-20,10.45-30.94.52-6.39-9.42-6.34-9.94,0-.74,9.19-4.66,18-9.09,25.92a102.78,102.78,0,0,1-17.22,22.85,111.05,111.05,0,0,1-22.1,16.52c-8.42,4.94-17.95,8.94-27.88,8.35-6.4-.38-6.36,9.55,0,9.93Z" fill="#231f20"/></g><g id="change3_1"><path d="M186.25,490.34c-24.39-.68-45.7-5.35-58.91-46-9.09-28-6.09-60.94-9.14-82.32s-28.43-86.6-31.48-139S116.17,116.14,169,112.94s74.14,15,101.56,16c35.58,1.39,62.84-20.36,110.7-18.17,46.72,2.14,70.08,53.45,72.11,108C455.14,267,426.25,337.93,426.94,362c1,35.28-1,125.09-40.62,125.09-45.8,0-55.86-65.22-69.06-78.05-24.22-23.53-44.69-25.66-66-4.27C226.52,429.59,224.84,491.4,186.25,490.34Z" fill="#deeced"/></g><g id="change4_1"><path d="M198.58,138.79c-18.43-4.81-33.75.68-46.3,11.11-10.6,6.06-20.44,17.11-24.83,24.87-10.38,18.33-17.46,43.32-6.87,63.43,8.82,16.76,29.89,16.69,36.63-1.49,6-16.05.61-33.23,11-48.27,9.91-14.38,24-14.41,37.84-23.51C221.23,154.91,212.81,142.5,198.58,138.79Z" fill="#fff"/></g><g id="change5_1"><path d="M453.35,218.88c-1.92-50.84-21.64-96.69-60.28-106.4,70.48,28.87,48.27,142,14.81,188.67-9.27,12.94-23.51,15.56-41.4,28.15-16.5,11.62,24.51,12.59,37.43,50,7.7,22.33,17.21,77.57-14.24,87.11-10.31,3.13-24.59,3.63-34.12-.66-6.1-2.75-14.23-10-19-18.65,10.05,20,24.11,39.76,49.48,40.08,40.44.53,42-89.87,40.95-125.15C426.25,337.93,455.17,267.06,453.35,218.88Z" fill="#b9e1ea"/></g><g id="change2_4"><path d="M283.12,299.5h-1.54c-24.82-.49-39.12-10.06-46.74-18-8.26-8.61-10.6-17.09-10.69-17.44a3,3,0,0,1,2.66-3.57,3.59,3.59,0,0,1,4.22,2.24c.34,1.24,8.7,30,50.72,30.81,16.92.32,27.72-5.59,33.8-10.61,9.4-7.76,12.75-17.23,12.75-23.51a3.57,3.57,0,0,1,7.05,0c0,9.56-5.7,20.2-14.87,27.77C313.61,292.85,301.61,299.5,283.12,299.5Z" fill="#231f20"/></g><g id="change2_5"><path d="M395.72,163.37c-6-2.86-18.13-4.51-24.18.51-2.51,2.09-2.63,5.64,1.49,7.41,5,2.08,7.47-1.53,19.42,2.25,4.14,1.3,9.17,4.22,10.59-1.61C404.24,167,399.48,165.16,395.72,163.37Z" fill="#231f20"/></g><g id="change2_6"><path d="M159.86,167.83c5.35-3.9,17-7.76,23.86-3.93,2.85,1.59,3.62,5-.11,7.54-4.51,3-7.62-.12-18.67,5.79-3.83,2-8.25,5.84-10.7.36C152.14,172.93,156.49,170.29,159.86,167.83Z" fill="#231f20"/></g><g id="change2_7"><path d="M519.7,134.77c-13.24-.34-13.45,13.15-11.3,22.68-2-2.53-5.09-6-8.66-3.59-3.28,2.27-.49,7.08,1.36,9.52,4.61,6.06,9,12.31,8.16,20.42l-1.16,15c5.41-13.11,16.39-22.52,21.27-35.76C532.89,153.48,534.42,135.14,519.7,134.77Z" fill="#231f20"/></g><g id="change2_8"><path d="M210.89,231.14c-1.93-7-10-19.78-26.88-18.31a32.86,32.86,0,0,0-12.81,3.62l-10.62-10.61a3.31,3.31,0,0,0-4.68,4.68l9.83,9.83a24.77,24.77,0,0,0-5.31,7.07l-12.12-5.28a3.31,3.31,0,0,0-2.64,6.08l12.81,5.57a3.3,3.3,0,0,0,2.82,3.27l.48,0a3.33,3.33,0,0,0,3.28-2.82c.08-.54,2.24-13.34,19.53-14.84,15.51-1.36,19.76,12.89,19.93,13.48a3.31,3.31,0,1,0,6.38-1.77Z" fill="#231f20"/></g><g id="change2_9"><path d="M345.44,228.17c1.59-7.06,9.05-20.25,26-19.6a32.8,32.8,0,0,1,13,3l10.08-11.12a3.31,3.31,0,0,1,4.91,4.45L390,215.19a24.6,24.6,0,0,1,5.64,6.8l11.86-5.86a3.31,3.31,0,0,1,2.93,5.94l-12.53,6.19a3.29,3.29,0,0,1-2.66,3.4l-.47.06a3.33,3.33,0,0,1-3.41-2.66c-.11-.54-2.89-13.22-20.24-13.87-15.55-.6-19.1,13.83-19.24,14.43a3.32,3.32,0,0,1-6.47-1.45Z" fill="#231f20"/></g><g id="change2_10"><path d="M334.05,251.56a15.12,15.12,0,0,1,6,5.37c1,1.88,3.88.21,2.86-1.67a18.12,18.12,0,0,0-7.22-6.56c-1.89-1-3.56,1.87-1.67,2.86Z" fill="#231f20"/></g><g id="change2_11"><path d="M220.11,255.33c-2.69,1.93-4.42,5-5.89,7.88-1,1.9,1.89,3.58,2.86,1.67,1.17-2.32,2.53-5.14,4.7-6.69,1.72-1.23.07-4.11-1.67-2.86Z" fill="#231f20"/></g><g id="change4_2"><path d="M268.92,0c-13.24-.2,2.23,65.73,2.23,65.73C271.14,58.52,285.27.25,268.92,0Z" fill="#fff"/></g><g id="change4_3"><path d="M341.38,28.58C334.09,26.52,333,65.25,333,65.25,334,61.26,350.38,31.11,341.38,28.58Z" fill="#fff"/></g><g id="change4_4"><path d="M458.91,72.76C453,68,436.72,103.14,436.72,103.14,439.26,99.89,466.18,78.64,458.91,72.76Z" fill="#fff"/></g><g id="change4_5"><path d="M559.44,207c.3-7.56-37.62.34-37.62.34C525.94,207.42,559.06,216.33,559.44,207Z" fill="#fff"/></g><g id="change4_6"><path d="M208.13,31.85c-7.48,1.18,7.69,36.82,7.69,36.82C215.11,64.61,217.37,30.39,208.13,31.85Z" fill="#fff"/></g><g id="change4_7"><path d="M90.32,68.7c-6.15,4.42,23.42,29.44,23.42,29.44C111.28,94.83,97.92,63.24,90.32,68.7Z" fill="#fff"/></g><g id="change4_8"><path d="M0,225.17C.7,232.72,37.27,220,37.27,220,33.17,220.39-.82,215.86,0,225.17Z" fill="#fff"/></g><g id="change4_9"><path d="M416.79,23.37C404.4,18.7,396.66,86,396.66,86,399.09,79.19,432.09,29.13,416.79,23.37Z" fill="#fff"/></g><g id="change4_10"><path d="M517.15,92.59c-8-10.53-50.29,42.39-50.29,42.39C472.52,130.52,527.06,105.59,517.15,92.59Z" fill="#fff"/></g><g id="change4_11"><path d="M565.34,268.79c1.47-13.16-65.64-4-65.64-4C506.87,265.43,563.53,285,565.34,268.79Z" fill="#fff"/></g><g id="change4_12"><path d="M130,22.83c-12.32,4.85,27.08,59.94,27.08,59.94C154.31,76.1,145.2,16.84,130,22.83Z" fill="#fff"/></g><g id="change4_13"><path d="M32.58,91.74c-8.84,9.85,51.06,41.47,51.06,41.47C78.19,128.48,43.5,79.57,32.58,91.74Z" fill="#fff"/></g><g id="change4_14"><path d="M8.11,295.84c3,12.89,63.19-18.24,63.19-18.24C64.31,279.37,4.35,279.93,8.11,295.84Z" fill="#fff"/></g></g></g></svg>